<svg width="20" height="20" viewBox="0 0 20 20" fill="none" xmlns="http://www.w3.org/2000/svg">
<path fill-rule="evenodd" clip-rule="evenodd" d="M5.83329 3.33341C4.45258 3.33341 3.33329 4.4527 3.33329 5.83341V14.1667C3.33329 15.5475 4.45258 16.6667 5.83329 16.6667H14.1666C15.5473 16.6667 16.6666 15.5475 16.6666 14.1667V10.8334C16.6666 10.3732 17.0397 10.0001 17.5 10.0001C17.9602 10.0001 18.3333 10.3732 18.3333 10.8334V14.1667C18.3333 16.4679 16.4678 18.3334 14.1666 18.3334H5.83329C3.53211 18.3334 1.66663 16.4679 1.66663 14.1667V5.83341C1.66663 3.53223 3.53211 1.66675 5.83329 1.66675H9.16663C9.62686 1.66675 9.99996 2.03984 9.99996 2.50008C9.99996 2.96032 9.62686 3.33341 9.16663 3.33341H5.83329Z" fill="#D7DAE0"/>
<path fill-rule="evenodd" clip-rule="evenodd" d="M18.0892 1.91083C18.4147 2.23626 18.4147 2.7639 18.0892 3.08934L10.5892 10.5893C10.2638 10.9148 9.73614 10.9148 9.4107 10.5893C9.08527 10.2639 9.08527 9.73626 9.4107 9.41083L16.9107 1.91083C17.2361 1.58539 17.7638 1.58539 18.0892 1.91083Z" fill="#D7DAE0"/>
<path fill-rule="evenodd" clip-rule="evenodd" d="M11.6666 2.50008C11.6666 2.03984 12.0397 1.66675 12.5 1.66675H17.5C17.9602 1.66675 18.3333 2.03984 18.3333 2.50008V7.50008C18.3333 7.96032 17.9602 8.33341 17.5 8.33341C17.0397 8.33341 16.6666 7.96032 16.6666 7.50008V3.33341H12.5C12.0397 3.33341 11.6666 2.96032 11.6666 2.50008Z" fill="#D7DAE0"/>
</svg>
