<svg width="20" height="20" viewBox="0 0 20 20" fill="none" xmlns="http://www.w3.org/2000/svg">
<path fill-rule="evenodd" clip-rule="evenodd" d="M5.83329 3.33317C4.45258 3.33317 3.33329 4.45246 3.33329 5.83317V14.1665C3.33329 15.5472 4.45258 16.6665 5.83329 16.6665H14.1666C15.5473 16.6665 16.6666 15.5472 16.6666 14.1665V10.8332C16.6666 10.3729 17.0397 9.99984 17.5 9.99984C17.9602 9.99984 18.3333 10.3729 18.3333 10.8332V14.1665C18.3333 16.4677 16.4678 18.3332 14.1666 18.3332H5.83329C3.53211 18.3332 1.66663 16.4677 1.66663 14.1665V5.83317C1.66663 3.53198 3.53211 1.6665 5.83329 1.6665H9.16663C9.62686 1.6665 9.99996 2.0396 9.99996 2.49984C9.99996 2.96007 9.62686 3.33317 9.16663 3.33317H5.83329Z" fill="#EB993F"/>
<path fill-rule="evenodd" clip-rule="evenodd" d="M18.0892 1.91058C18.4147 2.23602 18.4147 2.76366 18.0892 3.08909L10.5892 10.5891C10.2638 10.9145 9.73614 10.9145 9.4107 10.5891C9.08527 10.2637 9.08527 9.73602 9.4107 9.41058L16.9107 1.91058C17.2361 1.58514 17.7638 1.58514 18.0892 1.91058Z" fill="#EB993F"/>
<path fill-rule="evenodd" clip-rule="evenodd" d="M11.6666 2.49984C11.6666 2.0396 12.0397 1.6665 12.5 1.6665H17.5C17.9602 1.6665 18.3333 2.0396 18.3333 2.49984V7.49984C18.3333 7.96007 17.9602 8.33317 17.5 8.33317C17.0397 8.33317 16.6666 7.96007 16.6666 7.49984V3.33317H12.5C12.0397 3.33317 11.6666 2.96007 11.6666 2.49984Z" fill="#EB993F"/>
</svg>
